# xmcd
#
# Track frame offsets: 
#        150
#        18757
#        34674
#        46931
#        62810
#        80272
#        92249
#        104906
#        119921
#        160523
#        179072
#        196089
#        211159
#
# Disc length: 2908 seconds
#
# Revision: 0
# Processed by: cddbd v1.5.2PL0 Copyright (c) Steve Scherf et al.
# Submitted via: ExactAudioCopy v0.95a5
#
DISCID=ae0b5a0d
DTITLE=Cub Koda and the Houserockers - Live at B.L.U.E.S.
DYEAR=1982
DGENRE=blues
TTITLE0=Highway 49
TTITLE1=You Can't Sit Down
TTITLE2=I Have a Little Girl
TTITLE3=Hound Dog's Crawl
TTITLE4=Take Five
TTITLE5=Comin' Round the Mountain
TTITLE6=Courtin' in a Cadillac
TTITLE7=Flying Saucer Boogie
TTITLE8=The Hillbilly Blues
TTITLE9=Chicago Daily Blues
TTITLE10=The Time Has Come
TTITLE11=Kitchen Sink Boogie
TTITLE12=Eddie's Boogie
EXTD=
EXTT0=
EXTT1=
EXTT2=
EXTT3=
EXTT4=
EXTT5=
EXTT6=
EXTT7=
EXTT8=
EXTT9=
EXTT10=
EXTT11=
EXTT12=
PLAYORDER=
